<?xml version="1.0" standalone="no"?>
<!DOCTYPE svg PUBLIC "-//W3C//DTD SVG 20010904//EN"
 "http://www.w3.org/TR/2001/REC-SVG-20010904/DTD/svg10.dtd">
<svg version="1.0" xmlns="http://www.w3.org/2000/svg"
 width="339.000000pt" height="318.000000pt" viewBox="0 0 339.000000 318.000000"
 preserveAspectRatio="xMidYMid meet">

<g transform="translate(0.000000,318.000000) scale(0.100000,-0.100000)"
fill="#000000" stroke="none">
<path d="M1206 2668 c3 -5 10 -6 15 -3 13 9 11 12 -6 12 -8 0 -12 -4 -9 -9z"/>
<path d="M1164 2630 c0 -9 5 -17 11 -17 6 0 11 8 11 17 0 9 -5 17 -11 17 -6 0
-11 -8 -11 -17z"/>
<path d="M1125 2630 c4 -6 -3 -8 -17 -6 -13 2 -39 -3 -58 -11 -19 -8 -42 -16
-50 -18 -17 -4 -180 -69 -227 -90 -17 -8 -34 -15 -37 -15 -3 0 -51 -21 -107
-47 l-101 -47 5 -330 c5 -354 13 -433 71 -636 125 -446 408 -810 866 -1116 92
-62 204 -124 222 -124 17 0 96 41 178 93 375 238 642 524 809 868 33 69 61
131 61 137 0 30 -250 202 -352 243 -74 29 -190 69 -200 69 -4 0 -8 -8 -8 -18
0 -10 -6 -41 -14 -70 l-13 -53 48 -24 c26 -14 50 -29 53 -33 8 -14 -160 -146
-244 -190 -159 -86 -320 -104 -486 -56 -128 36 -218 90 -414 245 -14 11 -80
64 -147 117 l-123 97 43 40 c75 70 210 189 267 236 130 107 286 187 418 213
103 20 162 20 260 0 116 -24 190 -55 362 -156 31 -18 297 -214 310 -228 16
-17 92 -72 95 -68 3 2 9 38 15 79 19 134 7 236 -33 264 -12 8 -16 15 -10 15
18 0 -40 53 -81 74 -20 11 -36 25 -36 33 0 7 -9 13 -20 13 -11 0 -20 5 -20 10
0 6 -8 14 -17 17 -25 9 -63 51 -63 68 0 8 -16 21 -35 29 -19 8 -35 20 -35 25
0 6 -9 11 -20 11 -12 0 -48 18 -81 40 -34 22 -72 41 -85 42 -14 1 -23 7 -20
13 5 14 -50 39 -70 31 -12 -5 -14 -1 -9 15 5 14 3 19 -3 15 -6 -3 -13 -2 -17
4 -3 5 -15 10 -26 10 -11 0 -17 5 -14 10 4 6 11 8 16 5 5 -4 9 -1 9 4 0 6 -7
11 -16 11 -18 0 -66 35 -58 42 4 5 -134 54 -169 60 -14 2 -24 -12 -44 -67 -14
-38 -31 -92 -39 -120 -8 -27 -31 -96 -52 -152 l-38 -103 -49 36 c-28 20 -89
62 -137 94 l-87 58 49 21 c27 12 51 21 55 21 3 0 32 -18 65 -40 l58 -39 41
122 c23 68 41 128 41 135 0 7 -32 0 -87 -19 -148 -50 -146 -49 -186 -38 -21 5
-35 13 -33 18 12 18 -57 64 -113 76 -34 7 -34 8 -12 20 20 10 21 13 7 18 -10
4 -15 3 -11 -3z m835 -1775 c25 -18 65 -44 90 -58 24 -13 46 -29 48 -35 5 -15
-116 -94 -131 -86 -6 4 -9 3 -4 -1 4 -5 -5 -17 -20 -27 -34 -22 -54 -24 -27
-2 19 15 19 16 -1 9 -11 -4 -27 -7 -35 -8 -8 0 -21 -4 -27 -10 -18 -13 -16 1
1 19 8 8 22 11 30 8 9 -3 16 -2 16 4 0 5 -7 13 -16 16 -21 8 -6 29 17 23 11
-3 17 -1 14 3 -3 5 7 17 22 28 16 11 26 22 23 25 -3 2 -38 23 -77 46 -76 44
-83 55 -63 106 l10 25 42 -26 c24 -15 63 -41 88 -59z"/>
<path d="M1220 2626 c0 -2 7 -7 16 -10 8 -3 12 -2 9 4 -6 10 -25 14 -25 6z"/>
<path d="M1278 2513 c7 -3 16 -2 19 1 4 3 -2 6 -13 5 -11 0 -14 -3 -6 -6z"/>
<path d="M1320 2510 c-9 -6 -10 -10 -3 -10 6 0 15 5 18 10 8 12 4 12 -15 0z"/>
<path d="M1958 2463 c7 -3 16 -2 19 1 4 3 -2 6 -13 5 -11 0 -14 -3 -6 -6z"/>
<path d="M1620 1865 c-93 -29 -167 -120 -177 -218 -18 -178 150 -315 326 -267
83 22 189 160 179 231 -3 22 -9 25 -71 30 -58 5 -73 10 -98 35 -43 43 -47 89
-14 138 14 21 24 40 21 43 -7 7 -78 23 -101 22 -11 0 -40 -7 -65 -14z"/>
</g>
</svg>
